<?xml version="1.0" standalone="no"?>
<!DOCTYPE svg PUBLIC "-//W3C//DTD SVG 20010904//EN"
 "http://www.w3.org/TR/2001/REC-SVG-20010904/DTD/svg10.dtd">
<svg version="1.0" xmlns="http://www.w3.org/2000/svg"
 width="600.000000pt" height="894.000000pt" viewBox="0 0 600.000000 894.000000"
 preserveAspectRatio="xMidYMid meet">
<g transform="translate(0.000000,894.000000) scale(0.050000,-0.050000)"
fill="#000000" stroke="none">
<path d="M10051 13050 c-470 -478 -864 -870 -875 -870 -11 0 -76 44 -143 97
-1452 1151 -3586 1375 -5263 554 -2885 -1413 -3659 -5060 -1594 -7506 l89
-105 -718 -732 c-394 -403 -742 -763 -773 -800 l-57 -68 769 0 768 0 318 335
c175 184 362 382 416 440 120 127 89 129 303 -11 1416 -924 3268 -1040 4840
-304 l209 97 0 1012 c0 556 -4 1011 -8 1011 -5 0 -74 -55 -155 -123 -1058
-884 -2530 -1067 -3719 -461 -320 163 -403 218 -383 255 19 34 716 779 1015
1084 l200 205 126 -51 c1246 -507 2465 818 1870 2031 -41 83 -74 156 -75 162
-2 25 2007 2078 2033 2078 9 0 16 -1483 17 -3295 l1 -3295 201 210 c875 910
1300 1782 1437 2943 24 205 41 5977 18 5977 -6 0 -397 -391 -867 -870z m-3511
-1408 c428 -75 1115 -352 1339 -540 l70 -58 -303 -307 c-166 -169 -449 -458
-629 -643 l-327 -337 -135 62 c-1306 595 -2626 -859 -1892 -2084 l45 -74 -521
-526 c-286 -289 -566 -572 -621 -630 -126 -132 -121 -133 -251 40 -1777 2376
271 5614 3225 5097z"/>
</g>
</svg>
